# xmcd
#
# Track frame offsets:
#	150
#	14319
#	31412
#	53874
#	73037
#	92212
#	109287
#	131329
#	152787
#	169074
#	188594
#	211854
#	233724
#	252887
#	272549
#	289899
#	312044
#	329099
#	357899
#
# Disc length: 4775 seconds
#
# Revision: 1
# Processed by: cddbd v1.5.2PL0 Copyright (c) Steve Scherf et al.
# Submitted via: audiograbber 1.83.01
#
DISCID=1112a513
DTITLE=Various Artist - Love and Kisses CD2
DYEAR=2001
DGENRE=Pop/Funk
TTITLE0=when i dream 
TTITLE1=fading like a flower
TTITLE2=i want to know what love is
TTITLE3=love hurts 
TTITLE4=walking in memphis 
TTITLE5=mmm mmm mmmm mmmm
TTITLE6=why 
TTITLE7=angel
TTITLE8=how i will know
TTITLE9=i dont wonna lose you
TTITLE10=nothing compares 
TTITLE11=all by myself
TTITLE12=heartbreaker 
TTITLE13=ease your troubled mind 
TTITLE14=no one calls my name
TTITLE15=what´s up
TTITLE16=rain
TTITLE17=gone with the sin 
TTITLE18=hello again
EXTD=
EXTT0=
EXTT1=
EXTT2=
EXTT3=
EXTT4=
EXTT5=
EXTT6=
EXTT7=
EXTT8=
EXTT9=
EXTT10=
EXTT11=
EXTT12=
EXTT13=
EXTT14=
EXTT15=
EXTT16=
EXTT17=
EXTT18=
PLAYORDER=
